<svg version="1.1" viewBox="0.000000 0.000000 96.000000 96.000000" xmlns="http://www.w3.org/2000/svg" xmlns:xlink="http://www.w3.org/1999/xlink" id="Icons_Trophy" overflow="hidden"><path d=" M 72.900002 46.500000 C 69.400002 50.099998 66.099998 52.400002 58.900002 53.200001 C 60.799999 51.299999 63.000000 49.400002 64.900002 47.099998 C 65.699997 46.200001 67.199997 44.200001 67.199997 44.099998 C 68.900002 41.299999 69.900002 38.099998 69.900002 34.599998 L 69.900002 21.600000 L 76.900002 21.600000 L 76.900002 36.799999 C 77.000000 37.000000 77.199997 42.000000 72.900002 46.500000 Z M 23.200001 46.500000 C 18.799999 42.000000 19.000000 37.000000 19.000000 36.799999 L 19.000000 21.500000 L 26.000000 21.500000 L 26.000000 34.500000 C 26.000000 38.000000 27.000000 41.200001 28.700001 44.000000 C 28.700001 44.099998 30.200001 46.200001 31.000000 47.000000 C 33.000000 49.299999 35.099998 51.200001 37.000000 53.099998 C 30.000000 52.299999 26.600000 50.000000 23.200001 46.500000 Z M 83.000000 36.500000 L 83.000000 15.500000 L 70.000000 15.500000 L 70.000000 8.500000 L 48.000000 8.500000 L 26.000000 8.500000 L 26.000000 15.500000 L 13.000000 15.500000 L 13.000000 36.400002 C 13.000000 37.400002 13.000000 44.299999 18.700001 50.400002 C 24.200001 56.200001 30.900000 59.200001 42.599998 59.400002 C 43.500000 60.900002 44.000000 62.599998 44.000000 64.400002 L 44.000000 77.400002 L 39.000000 77.400002 C 36.799999 77.400002 35.000000 79.199997 35.000000 81.400002 L 30.000000 81.400002 C 27.799999 81.400002 26.000000 83.199997 26.000000 85.400002 L 26.000000 87.400002 L 70.000000 87.400002 L 70.000000 85.400002 C 70.000000 83.199997 68.199997 81.400002 66.000000 81.400002 L 61.000000 81.400002 C 61.000000 79.199997 59.200001 77.400002 57.000000 77.400002 L 52.000000 77.400002 L 52.000000 64.500000 C 52.000000 62.700001 52.500000 61.000000 53.400002 59.500000 C 65.099998 59.299999 71.800003 56.200001 77.300003 50.500000 C 83.000000 44.500000 83.000000 37.500000 83.000000 36.500000 Z"/></svg>