<svg version="1.1" viewBox="0.000000 0.000000 96.000000 96.000000" xmlns="http://www.w3.org/2000/svg" xmlns:xlink="http://www.w3.org/1999/xlink" id="Icons_Receiver" overflow="hidden"><path d=" M 39.200001 29.200001 C 40.000000 28.400000 40.500000 27.299999 40.500000 26.100000 C 40.500000 24.900000 40.000000 23.799999 39.200001 23.000000 L 25.400000 9.300000 C 24.600000 8.500000 23.500000 8.000000 22.400000 8.000000 C 21.299999 8.000000 20.100000 8.500000 19.299999 9.300000 L 17.799999 10.800000 L 37.700001 30.700001 L 39.200001 29.200001 Z"/><path d=" M 59.299999 64.500000 C 58.900002 64.900002 58.299999 65.099998 57.799999 65.099998 C 57.299999 65.099998 56.700001 64.900002 56.299999 64.500000 L 31.500000 39.799999 C 31.100000 39.400002 30.900000 38.799999 30.900000 38.299999 C 30.900000 37.799999 31.100000 37.200001 31.500000 36.799999 L 34.599998 33.799999 L 14.700000 13.900000 C 13.400000 15.200000 12.200000 16.400000 11.400000 17.200001 C 9.400000 19.100000 8.200000 21.600000 8.100000 24.299999 C 7.800000 28.799999 8.900000 33.099998 10.400000 37.299999 C 12.000000 41.000000 14.100000 44.500000 16.400000 47.799999 C 24.600000 60.099998 34.900002 70.800003 46.900002 79.300003 C 48.900002 80.800003 51.000000 82.099998 53.200001 83.300003 C 58.200001 85.800003 63.500000 87.599998 69.199997 88.000000 C 73.000000 88.300003 76.800003 86.800003 79.400002 84.000000 L 82.099998 81.300003 L 62.299999 61.400002 L 59.299999 64.500000 Z"/><path d=" M 86.699997 70.599998 L 72.900002 56.799999 C 72.099998 56.000000 71.000000 55.500000 69.800003 55.500000 C 68.599998 55.500000 67.500000 56.000000 66.699997 56.799999 L 65.199997 58.400002 L 85.099998 78.300003 L 86.599998 76.800003 C 87.400002 76.000000 87.900002 74.900002 87.900002 73.699997 C 87.900002 72.500000 87.500000 71.400002 86.699997 70.599998 Z"/></svg>